<?xml version="1.0" encoding="UTF-8" standalone="no"?>
<!-- Created with Inkscape (http://www.inkscape.org/) -->

<svg
   xmlns:osb="http://www.openswatchbook.org/uri/2009/osb"
   xmlns:dc="http://purl.org/dc/elements/1.1/"
   xmlns:cc="http://creativecommons.org/ns#"
   xmlns:rdf="http://www.w3.org/1999/02/22-rdf-syntax-ns#"
   xmlns:svg="http://www.w3.org/2000/svg"
   xmlns="http://www.w3.org/2000/svg"
   xmlns:xlink="http://www.w3.org/1999/xlink"
   xmlns:sodipodi="http://sodipodi.sourceforge.net/DTD/sodipodi-0.dtd"
   xmlns:inkscape="http://www.inkscape.org/namespaces/inkscape"
   width="108"
   height="72"
   id="svg2"
   version="1.1"
   inkscape:version="0.48.2 r9819"
   sodipodi:docname="d.svg">
  <defs
     id="defs4">
    <linearGradient
       id="linearGradient88561">
      <stop
         style="stop-color:#a1a707;stop-opacity:1;"
         offset="0"
         id="stop88563" />
      <stop
         style="stop-color:#efd75f;stop-opacity:1;"
         offset="1"
         id="stop88565" />
    </linearGradient>
    <linearGradient
       id="linearGradient87651">
      <stop
         id="stop87653"
         offset="0"
         style="stop-color:#f6ff0a;stop-opacity:1;" />
      <stop
         id="stop87655"
         offset="1"
         style="stop-color:#efd75f;stop-opacity:1;" />
    </linearGradient>
    <linearGradient
       id="linearGradient5562">
      <stop
         style="stop-color:#ffffff;stop-opacity:1;"
         offset="0"
         id="stop5568" />
      <stop
         id="stop5566"
         offset="1"
         style="stop-color:#e3e3e3;stop-opacity:1;" />
    </linearGradient>
    <linearGradient
       id="linearGradient5544">
      <stop
         style="stop-color:#ffffff;stop-opacity:1;"
         offset="0"
         id="stop5546" />
      <stop
         style="stop-color:#626262;stop-opacity:0;"
         offset="1"
         id="stop5548" />
    </linearGradient>
    <linearGradient
       id="linearGradient5446">
      <stop
         id="stop5448"
         offset="0"
         style="stop-color:#d1d1d1;stop-opacity:1;" />
      <stop
         id="stop5450"
         offset="1"
         style="stop-color:#dedede;stop-opacity:1;" />
    </linearGradient>
    <linearGradient
       id="linearGradient5347"
       osb:paint="solid">
      <stop
         style="stop-color:#999999;stop-opacity:1;"
         offset="0"
         id="stop5349" />
    </linearGradient>
    <linearGradient
       id="linearGradient5199">
      <stop
         style="stop-color:#fefefe;stop-opacity:0;"
         offset="0"
         id="stop5201" />
      <stop
         style="stop-color:#efefef;stop-opacity:1;"
         offset="1"
         id="stop5203" />
    </linearGradient>
    <linearGradient
       id="linearGradient5200"
       osb:paint="solid">
      <stop
         style="stop-color:#000000;stop-opacity:0.11372549;"
         offset="0"
         id="stop5202" />
    </linearGradient>
    <linearGradient
       inkscape:collect="always"
       xlink:href="#linearGradient5562"
       id="linearGradient5560"
       x1="1002.4699"
       y1="-8.901"
       x2="1012.1926"
       y2="-8.901"
       gradientUnits="userSpaceOnUse"
       gradientTransform="matrix(0.97709301,0,0,1,23.186289,0)" />
    <linearGradient
       inkscape:collect="always"
       xlink:href="#linearGradient5562"
       id="linearGradient5572"
       gradientUnits="userSpaceOnUse"
       gradientTransform="matrix(0.97709301,0,0,1,23.186289,-36)"
       x1="1002.4699"
       y1="-8.901"
       x2="1012.1926"
       y2="-8.901" />
    <linearGradient
       inkscape:collect="always"
       xlink:href="#linearGradient5562"
       id="linearGradient5576"
       gradientUnits="userSpaceOnUse"
       gradientTransform="matrix(0.97709301,0,0,1,41.186289,-36)"
       x1="1002.4699"
       y1="-8.901"
       x2="1012.1926"
       y2="-8.901" />
    <linearGradient
       inkscape:collect="always"
       xlink:href="#linearGradient5562"
       id="linearGradient5580"
       gradientUnits="userSpaceOnUse"
       gradientTransform="matrix(0.97709301,0,0,1,41.186289,0)"
       x1="1002.4699"
       y1="-8.901"
       x2="1012.1926"
       y2="-8.901" />
    <linearGradient
       inkscape:collect="always"
       xlink:href="#linearGradient87651"
       id="linearGradient87649"
       x1="-135.86552"
       y1="1142.1395"
       x2="-18.940361"
       y2="1142.1395"
       gradientUnits="userSpaceOnUse"
       gradientTransform="matrix(0.07709261,0,0,0.12894479,-1002.2194,-83.684417)" />
    <linearGradient
       inkscape:collect="always"
       xlink:href="#linearGradient87651"
       id="linearGradient87709"
       gradientUnits="userSpaceOnUse"
       gradientTransform="matrix(0,-0.06789915,0.1662629,0,-125.78894,1003.9008)"
       x1="-135.86552"
       y1="1142.1395"
       x2="-18.940361"
       y2="1142.1395" />
    <linearGradient
       inkscape:collect="always"
       xlink:href="#linearGradient87651"
       id="linearGradient87729"
       gradientUnits="userSpaceOnUse"
       gradientTransform="matrix(0,-0.04146307,-0.13259271,0,215.24749,1024.3675)"
       x1="-135.86552"
       y1="1142.1395"
       x2="-18.940361"
       y2="1142.1395" />
  </defs>
  <sodipodi:namedview
     id="base"
     pagecolor="#ffffff"
     bordercolor="#666666"
     borderopacity="1.0"
     inkscape:pageopacity="0.0"
     inkscape:pageshadow="2"
     inkscape:zoom="14.360294"
     inkscape:cx="57.028343"
     inkscape:cy="32.464995"
     inkscape:document-units="px"
     inkscape:current-layer="layer1"
     showgrid="false"
     inkscape:window-width="1436"
     inkscape:window-height="856"
     inkscape:window-x="0"
     inkscape:window-y="0"
     inkscape:window-maximized="1" />
  <metadata
     id="metadata7">
    <rdf:RDF>
      <cc:Work
         rdf:about="">
        <dc:format>image/svg+xml</dc:format>
        <dc:type
           rdf:resource="http://purl.org/dc/dcmitype/StillImage" />
        <dc:title></dc:title>
      </cc:Work>
    </rdf:RDF>
  </metadata>
  <g
     inkscape:label="Layer 1"
     inkscape:groupmode="layer"
     id="layer1"
     transform="translate(0,-980.36218)">
    <rect
       style="opacity:1;fill:#f0f0f0;fill-opacity:1;fill-rule:evenodd;stroke:#b0b0b0;stroke-width:1px;stroke-linecap:butt;stroke-linejoin:miter;stroke-opacity:1"
       id="rect2996"
       width="13.131983"
       height="12.626906"
       x="2.4079881"
       y="-1013.7441"
       transform="scale(1,-1)" />
    <rect
       transform="scale(1,-1)"
       y="-1013.6178"
       x="20.407988"
       height="12.626906"
       width="13.131983"
       id="rect5267"
       style="opacity:1;fill:#505050;fill-opacity:1;fill-rule:evenodd;stroke:#b0b0b0;stroke-width:1px;stroke-linecap:butt;stroke-linejoin:miter;stroke-opacity:1" />
    <rect
       transform="scale(1,-1)"
       y="-1013.7441"
       x="38.40799"
       height="12.626906"
       width="13.131983"
       id="rect5271"
       style="opacity:1;fill:#f0f0f0;fill-opacity:1;fill-rule:evenodd;stroke:#b0b0b0;stroke-width:1px;stroke-linecap:butt;stroke-linejoin:miter;stroke-opacity:1" />
    <rect
       transform="scale(1,-1)"
       y="-1031.7441"
       x="2.4079881"
       height="12.626906"
       width="13.131983"
       id="rect5275"
       style="opacity:1;fill:#f0f0f0;fill-opacity:1;fill-rule:evenodd;stroke:#a5bda3;stroke-width:1px;stroke-linecap:butt;stroke-linejoin:miter;stroke-opacity:1" />
    <rect
       style="opacity:1;fill:#505050;fill-opacity:1;fill-rule:evenodd;stroke:#a5bda3;stroke-width:1px;stroke-linecap:butt;stroke-linejoin:miter;stroke-opacity:1"
       id="rect5277"
       width="13.131983"
       height="12.626906"
       x="20.407988"
       y="-1031.6178"
       transform="scale(1,-1)" />
    <rect
       style="opacity:1;fill:#f0f0f0;fill-opacity:1;fill-rule:evenodd;stroke:#a5bda3;stroke-width:1px;stroke-linecap:butt;stroke-linejoin:miter;stroke-opacity:1"
       id="rect5279"
       width="13.131983"
       height="12.626906"
       x="38.40799"
       y="-1031.7441"
       transform="scale(1,-1)" />
    <path
       style="fill:#999999;stroke:#dbdbdb;stroke-width:1px;stroke-linecap:butt;stroke-linejoin:miter;stroke-opacity:1"
       d="m 98.5,980.26254 0,72.09966"
       id="path5289"
       inkscape:connector-type="polyline"
       inkscape:connector-curvature="3" />
    <path
       style="fill:none;stroke:#dbdbdb;stroke-width:1.00229239px;stroke-linecap:butt;stroke-linejoin:miter;stroke-opacity:1"
       d="m 44.501146,980.44578 0,9.9118"
       id="path5337"
       inkscape:connector-type="polyline"
       inkscape:connector-curvature="3" />
    <path
       style="fill:none;stroke:#dbdbdb;stroke-width:1px;stroke-linecap:butt;stroke-linejoin:miter;stroke-opacity:1"
       d="m 44.996441,989.86218 7.678571,0"
       id="path5339"
       inkscape:connector-type="polyline"
       inkscape:connector-curvature="3" />
    <rect
       style="fill:#ffffff;fill-opacity:1;stroke:#b0b0b0;stroke-width:0.95817488;stroke-linejoin:miter;stroke-opacity:1"
       id="rect5343"
       width="8.0418253"
       height="8.0418253"
       x="58.379086"
       y="985.84125" />
    <rect
       y="985.84125"
       x="4.2790861"
       height="8.0418253"
       width="8.0418253"
       id="rect5353"
       style="fill:#ffffff;fill-opacity:1;stroke:#b0b0b0;stroke-width:0.95817488;stroke-linejoin:miter;stroke-opacity:1" />
    <rect
       style="fill:#ffffff;fill-opacity:1;stroke:#b0b0b0;stroke-width:0.95817488;stroke-linejoin:miter;stroke-opacity:1"
       id="rect5355"
       width="8.0418253"
       height="8.0418253"
       x="22.279087"
       y="985.84125" />
    <rect
       y="985.84125"
       x="76.479088"
       height="8.0418253"
       width="8.0418253"
       id="rect5357"
       style="fill:#ffffff;fill-opacity:1;stroke:#b0b0b0;stroke-width:0.95817488;stroke-linejoin:miter;stroke-opacity:1" />
    <path
       style="fill:none;stroke:#dbdbdb;stroke-width:1.03683293px;stroke-linecap:butt;stroke-linejoin:miter;stroke-opacity:1"
       d="m 62.518416,985.36376 0,-4.99951"
       id="path5363"
       inkscape:connector-type="polyline"
       inkscape:connector-curvature="3" />
    <path
       inkscape:connector-curvature="3"
       inkscape:connector-type="polyline"
       id="path5365"
       d="m 66.907379,989.86418 4.186684,0"
       style="fill:none;stroke:#dbdbdb;stroke-width:0.7347573px;stroke-linecap:butt;stroke-linejoin:miter;stroke-opacity:1" />
    <path
       style="fill:none;stroke:#dbdbdb;stroke-width:0.69803119px;stroke-linecap:butt;stroke-linejoin:miter;stroke-opacity:1"
       d="m 84.991016,989.86418 4.512752,0"
       id="path5369"
       inkscape:connector-type="polyline"
       inkscape:connector-curvature="3" />
    <path
       style="fill:none;stroke:#b0b0b0;stroke-width:1px;stroke-linecap:butt;stroke-linejoin:miter;stroke-opacity:1"
       d="m 5.7294589,9.4178934 5.3190841,0"
       id="path5434"
       inkscape:connector-type="polyline"
       inkscape:connector-curvature="3"
       transform="translate(0,980.36218)" />
    <path
       inkscape:connector-curvature="3"
       inkscape:connector-type="polyline"
       id="path5436"
       d="m 8.3890009,987.12053 0,5.31909"
       style="fill:none;stroke:#b0b0b0;stroke-width:1px;stroke-linecap:butt;stroke-linejoin:miter;stroke-opacity:1" />
    <path
       inkscape:connector-curvature="3"
       inkscape:connector-type="polyline"
       id="path5438"
       d="m 59.829464,989.78007 5.31908,0"
       style="fill:none;stroke:#b0b0b0;stroke-width:1px;stroke-linecap:butt;stroke-linejoin:miter;stroke-opacity:1" />
    <path
       style="fill:none;stroke:#b0b0b0;stroke-width:1px;stroke-linecap:butt;stroke-linejoin:miter;stroke-opacity:1"
       d="m 62.489004,987.12053 0,5.31909"
       id="path5440"
       inkscape:connector-type="polyline"
       inkscape:connector-curvature="3" />
    <path
       inkscape:connector-curvature="3"
       inkscape:connector-type="polyline"
       id="path5442"
       d="m 23.729459,989.78007 5.319084,0"
       style="fill:none;stroke:#b0b0b0;stroke-width:1px;stroke-linecap:butt;stroke-linejoin:miter;stroke-opacity:1" />
    <path
       style="fill:none;stroke:#b0b0b0;stroke-width:1px;stroke-linecap:butt;stroke-linejoin:miter;stroke-opacity:1"
       d="m 77.929455,989.78007 5.31908,0"
       id="path5444"
       inkscape:connector-type="polyline"
       inkscape:connector-curvature="3" />
    <rect
       transform="matrix(0,1,-1,0,0,0)"
       y="-49.651001"
       x="1002.6926"
       height="9.5"
       width="9.5"
       id="rect5570"
       style="fill:url(#linearGradient5572);fill-opacity:1;stroke:none" />
    <path
       style="fill:#000000;fill-opacity:1;stroke:none"
       id="path5460"
       d="m 41.869186,1005.1097 c 0.809655,1.0238 1.534378,2.1035 2.225572,3.1995 0.510823,0.8178 0.936926,1.681 1.500772,2.469 0.101198,-0.021 0.201019,0.3655 0.370802,0.3368 0.0572,-0.013 0.140662,-0.1628 0.08767,-0.1405 -0.679921,0.2857 -1.28593,0.7299 -1.995991,0.9425 -0.152667,0.045 0.140264,-0.269 0.204455,-0.406 0.09174,-0.1958 0.175484,-0.3949 0.263228,-0.5923 0.565503,-1.1837 1.135,-2.3679 1.799555,-3.5072 0.414448,-0.7104 0.743578,-1.1996 1.191718,-1.8898 0.617732,-0.9313 1.31232,-1.8119 2.081492,-2.6379 0,0 2.251776,-0.8829 2.251776,-0.8829 l 0,0 c -0.810807,0.8134 -1.537921,1.6902 -2.174811,2.6303 -0.407163,0.6191 -0.826431,1.2398 -1.200969,1.8769 -0.655618,1.1154 -1.19671,2.2846 -1.732591,3.4528 -0.07639,0.1951 -0.151362,0.3908 -0.229189,0.5855 -0.0553,0.1382 -0.04751,0.3201 -0.170175,0.4134 -0.716263,0.5448 -1.497785,1.0142 -2.290178,1.4581 -0.06486,0.037 -0.153996,-0.018 -0.220009,-0.052 -0.137921,-0.072 -0.306343,-0.3174 -0.383949,-0.4154 -0.559203,-0.7973 -0.968326,-1.6738 -1.461856,-2.5066 -0.666957,-1.105 -1.386773,-2.1965 -2.302508,-3.1401 0,0 2.185195,-1.1939 2.185195,-1.1939 z"
       inkscape:connector-curvature="0" />
    <rect
       style="fill:url(#linearGradient5576);fill-opacity:1;stroke:none"
       id="rect5574"
       width="9.5"
       height="9.5"
       x="1020.6926"
       y="-49.651001"
       transform="matrix(0,1,-1,0,0,0)" />
    <path
       inkscape:connector-curvature="0"
       d="m 41.869186,1023.1097 c 0.809655,1.0238 1.534378,2.1035 2.225572,3.1995 0.510823,0.8178 0.936926,1.681 1.500772,2.469 0.101198,-0.021 0.201019,0.3655 0.370802,0.3368 0.0572,-0.013 0.140662,-0.1628 0.08767,-0.1405 -0.679921,0.2857 -1.28593,0.7299 -1.995991,0.9425 -0.152667,0.045 0.140264,-0.269 0.204455,-0.406 0.09174,-0.1958 0.175484,-0.3949 0.263228,-0.5923 0.565503,-1.1837 1.135,-2.3679 1.799555,-3.5072 0.414448,-0.7104 0.743578,-1.1996 1.191718,-1.8898 0.617732,-0.9313 1.31232,-1.8119 2.081492,-2.6379 0,0 2.251776,-0.8829 2.251776,-0.8829 l 0,0 c -0.810807,0.8134 -1.537921,1.6902 -2.174811,2.6303 -0.407163,0.6191 -0.826431,1.2398 -1.200969,1.8769 -0.655618,1.1154 -1.19671,2.2846 -1.732591,3.4528 -0.07639,0.1951 -0.151362,0.3908 -0.229189,0.5855 -0.0553,0.1382 -0.04751,0.3201 -0.170175,0.4134 -0.716263,0.5448 -1.497785,1.0142 -2.290178,1.4581 -0.06486,0.037 -0.153996,-0.018 -0.220009,-0.052 -0.137921,-0.072 -0.306343,-0.3174 -0.383949,-0.4154 -0.559203,-0.7973 -0.968326,-1.6738 -1.461856,-2.5066 -0.666957,-1.105 -1.386773,-2.1965 -2.302508,-3.1401 0,0 2.185195,-1.1939 2.185195,-1.1939 z"
       id="path5462"
       style="fill:#000000;fill-opacity:1;stroke:none" />
    <rect
       style="fill:url(#linearGradient5560);fill-opacity:1;stroke:none"
       id="rect5542"
       width="9.5"
       height="9.5"
       x="1002.6926"
       y="-13.651"
       transform="matrix(0,1,-1,0,0,0)" />
    <rect
       transform="matrix(0,1,-1,0,0,0)"
       y="-13.651"
       x="1020.6926"
       height="9.5"
       width="9.5"
       id="rect5578"
       style="fill:url(#linearGradient5580);fill-opacity:1;stroke:none" />
    <path
       inkscape:connector-curvature="3"
       inkscape:connector-type="polyline"
       id="path5601"
       d="m 80.518416,985.36376 0,-4.99951"
       style="fill:none;stroke:#dbdbdb;stroke-width:1.03683293px;stroke-linecap:butt;stroke-linejoin:miter;stroke-opacity:1" />
    <rect
       transform="matrix(0,-1,1,0,0,0)"
       ry="0.34804627"
       y="59.515503"
       x="-1003.8467"
       height="5.9689937"
       width="1.98069"
       id="rect87657"
       style="fill:#f0d760;fill-opacity:1;stroke:#ab8902;stroke-width:1.03100634;stroke-miterlimit:4;stroke-opacity:1;stroke-dasharray:none" />
    <rect
       style="fill:url(#linearGradient87649);fill-opacity:1;stroke:#ab8902;stroke-width:0.98593557;stroke-miterlimit:4;stroke-opacity:1;stroke-dasharray:none"
       id="rect87641"
       width="9.0140648"
       height="11.169274"
       x="-1012.6935"
       y="58.003902"
       ry="0.65126956"
       transform="matrix(0,-1,1,0,0,0)" />
    <rect
       style="fill:#dcc558;fill-opacity:1;stroke:#ab8902;stroke-width:1.01988006;stroke-miterlimit:4;stroke-opacity:1;stroke-dasharray:none"
       id="rect87719"
       width="1.9904346"
       height="5.9801202"
       x="-1020.8522"
       y="59.509941"
       ry="0.34869504"
       transform="matrix(0,-1,1,0,0,0)" />
    <rect
       transform="matrix(0,-1,1,0,0,0)"
       ry="0.65127093"
       y="58.003891"
       x="-1030.0139"
       height="11.169298"
       width="9.0143299"
       id="rect87721"
       style="fill:#dec559;fill-opacity:1;stroke:#ab8902;stroke-width:0.98567021;stroke-miterlimit:4;stroke-opacity:1;stroke-dasharray:none" />
    <path
       inkscape:connector-curvature="0"
       id="path87723"
       d="m 69.550731,1029.5275 1.208525,-2.0594 c 0.130827,-0.223 1.507445,-2.6908 0.85881,-2.6843 l -11.439009,0.1142 c -0.370983,0 -0.460945,0.6187 -0.558625,0.8557 l -1.554961,3.7738 c -0.09771,0.2371 0.298685,0.4734 0.669695,0.4734 l 10.145871,0 c 0.37101,0 0.538901,-0.2505 0.669694,-0.4734 z"
       clip-path="none"
       style="fill:url(#linearGradient87729);fill-opacity:1;stroke:#ab8902;stroke-width:0.99704045;stroke-miterlimit:4;stroke-opacity:1;stroke-dasharray:none"
       sodipodi:nodetypes="sssssssss" />
    <path
       inkscape:connector-curvature="0"
       inkscape:connector-type="polyline"
       id="path87725"
       d="m 60.014142,1020.887 4.940286,0"
       style="fill:none;stroke:#dcc458;stroke-width:1.45428479;stroke-linecap:butt;stroke-linejoin:miter;stroke-miterlimit:4;stroke-opacity:1;stroke-dasharray:none" />
  </g>
</svg>
