<svg style="" height="40" version="1.1" width="40" xmlns="http://www.w3.org/2000/svg"><desc style="">Created with Raphaël 2.1.0</desc><defs style=""><linearGradient style="" id="8290-_0050af-_002c62" x1="0" y1="1" x2="6.123031769111886e-17" y2="0" gradientTransform="matrix(1,0,0,1,-4,-4)"><stop style="-webkit-tap-highlight-color: rgba(0, 0, 0, 0);" offset="0%" stop-color="#0050af"></stop><stop style="-webkit-tap-highlight-color: rgba(0, 0, 0, 0);" offset="100%" stop-color="#002c62"></stop></linearGradient></defs><path style="-webkit-tap-highlight-color: rgba(0, 0, 0, 0); stroke-linejoin: round; opacity: 0;" fill="none" stroke="#ffffff" d="M25.545,23.328L17.918,15.623L25.534,8.007L27.391,9.864L29.649,1.436L21.222,3.694L23.058,5.53L15.455,13.134L7.942,5.543L9.809,3.696L1.393,1.394L3.608,9.833L5.456,8.005L12.98,15.608L5.465,23.123L3.609,21.268L1.351,29.695L9.779,27.438L7.941,25.6L15.443,18.098L23.057,25.791L21.19,27.638L29.606,29.939L27.393,21.5Z" stroke-width="3" stroke-linejoin="round" opacity="0" transform="matrix(1,0,0,1,4,4)"></path><path style="-webkit-tap-highlight-color: rgba(0, 0, 0, 0); opacity: 1; fill-opacity: 1;" fill="url(#8290-_0050af-_002c62)" stroke="none" d="M25.545,23.328L17.918,15.623L25.534,8.007L27.391,9.864L29.649,1.436L21.222,3.694L23.058,5.53L15.455,13.134L7.942,5.543L9.809,3.696L1.393,1.394L3.608,9.833L5.456,8.005L12.98,15.608L5.465,23.123L3.609,21.268L1.351,29.695L9.779,27.438L7.941,25.6L15.443,18.098L23.057,25.791L21.19,27.638L29.606,29.939L27.393,21.5Z" transform="matrix(1,0,0,1,4,4)" opacity="1" fill-opacity="1"></path><rect style="-webkit-tap-highlight-color: rgba(0, 0, 0, 0); opacity: 0;" x="0" y="0" width="32" height="32" r="0" rx="0" ry="0" fill="#000000" stroke="#000" opacity="0"></rect></svg>